<?xml version="1.0" encoding="iso-8859-1"?>
<!-- Generator: Adobe Illustrator 19.0.0, SVG Export Plug-In . SVG Version: 6.00 Build 0)  -->
<svg version="1.1" id="Capa_1" xmlns="http://www.w3.org/2000/svg" xmlns:xlink="http://www.w3.org/1999/xlink" x="0px" y="0px"
	 viewBox="0 0 512 512" style="enable-background:new 0 0 512 512;" xml:space="preserve">
<circle style="fill:#0087D5;" cx="256" cy="256" r="191"/>
<path style="fill:#006ECB;" d="M256,65c-5.214,0-10.378,0.217-15.486,0.627C338.756,73.511,416.027,155.728,416.027,256
	s-77.271,182.489-175.514,190.373C245.622,446.783,250.786,447,256,447c105.486,0,191-85.514,191-191S361.486,65,256,65z"/>
<path style="fill:#2F6695;" d="M409.94,381.169C437.781,346.993,454.5,303.415,454.5,256c0-47.446-16.741-91.05-44.614-125.236
	c-0.271-0.41-0.577-0.785-0.914-1.126C372.533,85.604,317.487,57.5,256,57.5s-116.533,28.103-152.971,72.138
	c-0.337,0.341-0.643,0.717-0.915,1.127C74.241,164.95,57.5,208.554,57.5,256c0,47.445,16.74,91.049,44.613,125.235
	c0.272,0.411,0.579,0.788,0.917,1.129C139.469,426.397,194.514,454.5,256,454.5c61.524,0,116.6-28.136,153.038-72.217
	C409.367,381.942,409.676,381.578,409.94,381.169z M72.666,263.5h51.606c0.818,33.522,7.104,65.609,18.217,93.842
	c-11.753,3.126-22.404,6.665-31.806,10.569C88.185,338.767,74.25,302.699,72.666,263.5z M110.683,144.089
	c9.4,3.904,20.049,7.442,31.806,10.569c-11.113,28.234-17.4,60.321-18.218,93.843H72.666
	C74.25,209.301,88.185,173.233,110.683,144.089z M439.334,248.5h-51.606c-0.818-33.522-7.104-65.609-18.217-93.842
	c11.753-3.126,22.404-6.665,31.806-10.569C423.815,173.233,437.75,209.301,439.334,248.5z M210.108,248.5h-70.833
	c0.829-32.433,7.028-63.342,17.941-90.288c16.627,3.623,34.592,6.327,53.538,8.041c1.242,0.108,2.491,0.204,3.738,0.303
	C211.836,191.691,210.33,219.543,210.108,248.5z M229.468,167.522c8.801,0.44,17.672,0.669,26.532,0.669
	c8.858,0,17.727-0.229,26.532-0.669c2.64,24.753,4.137,52.289,4.36,80.978h-61.784C225.331,219.811,226.828,192.275,229.468,167.522
	z M210.108,263.5c0.222,28.958,1.728,56.81,4.384,81.945c-1.257,0.099-2.514,0.197-3.766,0.305
	c-18.917,1.711-36.875,4.414-53.51,8.038c-10.913-26.946-17.112-57.855-17.941-90.288H210.108z M225.108,263.5h61.784
	c-0.223,28.69-1.72,56.227-4.36,80.981c-17.586-0.875-35.459-0.876-53.064,0.001C226.828,319.728,225.331,292.19,225.108,263.5z
	 M301.892,263.5h70.833c-0.829,32.433-7.028,63.342-17.941,90.288c-16.627-3.623-34.592-6.327-53.538-8.041
	c-1.242-0.108-2.491-0.204-3.738-0.303C300.164,320.309,301.67,292.458,301.892,263.5z M301.892,248.5
	c-0.222-28.958-1.728-56.81-4.384-81.945c1.257-0.099,2.514-0.197,3.766-0.305c18.917-1.711,36.875-4.414,53.51-8.038
	c10.913,26.946,17.112,57.855,17.941,90.288H301.892z M299.951,151.309c-1.394,0.121-2.794,0.231-4.195,0.34
	c-1.493-11.485-3.241-22.277-5.234-32.185c-3.847-19.123-8.307-33.725-13.438-43.945c22.654,6.533,43.639,23.546,60.545,49.516
	c3.94,6.052,7.564,12.463,10.878,19.171C333.35,147.367,317.068,149.76,299.951,151.309z M275.817,122.422
	c1.87,9.297,3.519,19.409,4.938,30.165c-16.425,0.783-33.102,0.783-49.509,0c1.419-10.756,3.067-20.868,4.938-30.165
	C244.521,80.973,253.936,72.5,256,72.5S267.479,80.973,275.817,122.422z M234.916,75.518c-5.131,10.221-9.591,24.823-13.438,43.945
	c-1.993,9.908-3.741,20.7-5.234,32.186c-1.391-0.108-2.782-0.218-4.166-0.337c-17.143-1.551-33.433-3.945-48.584-7.106
	c3.313-6.709,6.938-13.119,10.878-19.171C191.277,99.063,212.262,82.051,234.916,75.518z M212.049,360.691
	c1.394-0.121,2.794-0.231,4.195-0.34c1.493,11.485,3.241,22.277,5.234,32.185c3.847,19.123,8.307,33.725,13.438,43.945
	c-22.654-6.532-43.639-23.545-60.545-49.516c-3.94-6.052-7.564-12.463-10.878-19.171C178.65,364.633,194.932,362.24,212.049,360.691
	z M236.183,389.578c-1.87-9.297-3.519-19.409-4.938-30.165c16.425-0.783,33.102-0.783,49.509,0
	c-1.419,10.756-3.067,20.868-4.938,30.165C267.479,431.027,258.064,439.5,256,439.5S244.521,431.027,236.183,389.578z
	 M277.084,436.482c5.131-10.22,9.591-24.823,13.438-43.945c1.993-9.908,3.741-20.7,5.234-32.186
	c1.391,0.108,2.782,0.218,4.166,0.337c17.143,1.551,33.433,3.945,48.584,7.106c-3.313,6.709-6.938,13.119-10.878,19.171
	C320.723,412.937,299.738,429.949,277.084,436.482z M387.729,263.5h51.606c-1.584,39.199-15.52,75.267-38.017,104.411
	c-9.4-3.904-20.049-7.442-31.806-10.569C380.624,329.109,386.911,297.022,387.729,263.5z M391.145,132.008
	c-8.274,3.19-17.53,6.11-27.662,8.727c-3.977-8.4-8.405-16.391-13.283-23.884c-7.983-12.263-16.846-22.751-26.379-31.356
	C349.662,95.811,372.624,111.838,391.145,132.008z M188.179,85.495c-9.534,8.605-18.397,19.093-26.379,31.356
	c-4.877,7.493-9.306,15.484-13.283,23.884c-10.135-2.618-19.389-5.537-27.662-8.727C139.376,111.838,162.338,95.811,188.179,85.495z
	 M120.855,379.992c8.274-3.19,17.53-6.11,27.662-8.727c3.977,8.4,8.405,16.391,13.283,23.884
	c7.983,12.263,16.846,22.751,26.379,31.356C162.338,416.189,139.376,400.162,120.855,379.992z M323.821,426.505
	c9.534-8.605,18.397-19.093,26.379-31.356c4.877-7.493,9.306-15.484,13.283-23.884c10.135,2.618,19.389,5.537,27.662,8.727
	C372.624,400.162,349.662,416.189,323.821,426.505z"/>
<path style="fill:#FF993B;" d="M506,309.322H6c-3.314,0-6-2.686-6-6v-99.775c0-3.314,2.686-6,6-6h500c3.314,0,6,2.686,6,6v99.775
	C512,306.635,509.314,309.322,506,309.322z"/>
<path style="fill:#FF7B48;" d="M482,197.547v111.775h24c3.314,0,6-2.686,6-6v-99.775c0-3.314-2.686-6-6-6H482z"/>
<path style="fill:#FF5A51;" d="M109.301,309.322H6c-3.314,0-6-2.686-6-6v-99.775c0-3.314,2.686-6,6-6h103.301V309.322z"/>
<path style="fill:#FFD681;" d="M57.159,219.243l7.731,15.665c0.407,0.826,1.195,1.398,2.106,1.53l17.287,2.512
	c2.294,0.333,3.21,3.153,1.55,4.771l-12.509,12.193c-0.659,0.643-0.96,1.569-0.804,2.476l2.953,17.217
	c0.392,2.285-2.007,4.028-4.059,2.949l-15.462-8.129c-0.815-0.428-1.788-0.428-2.603,0l-15.462,8.129
	c-2.052,1.079-4.451-0.664-4.059-2.949l2.953-17.217c0.156-0.907-0.145-1.833-0.804-2.476l-12.509-12.193
	c-1.66-1.618-0.744-4.438,1.55-4.771l17.287-2.512c0.911-0.132,1.699-0.705,2.106-1.53l7.731-15.665
	C53.168,217.164,56.133,217.164,57.159,219.243z"/>
<g>
	<path style="fill:#5B5B75;" d="M235.864,278.307c-2.826,0-5.412-1.588-6.689-4.108l-10.639-20.985l-10.639,20.985
		c-1.278,2.521-3.864,4.109-6.689,4.109s-5.412-1.588-6.689-4.109l-17.36-34.244c-1.873-3.694-0.396-8.208,3.298-10.081
		c3.694-1.875,8.208-0.397,10.081,3.298l10.671,21.049l10.236-20.192c0.172-0.48,0.396-0.947,0.668-1.391
		c1.364-2.221,3.784-3.575,6.391-3.575s5.059,1.354,6.423,3.575c0.229,0.372,0.423,0.76,0.583,1.158l10.355,20.425l10.671-21.049
		c1.873-3.695,6.387-5.171,10.081-3.298c3.695,1.873,5.171,6.386,3.298,10.081l-17.36,34.244
		C241.275,276.718,238.689,278.307,235.864,278.307z"/>
	<path style="fill:#5B5B75;" d="M325.26,278.307c-2.826,0-5.412-1.588-6.689-4.109l-10.638-20.984l-10.639,20.984
		c-1.278,2.521-3.864,4.109-6.689,4.109s-5.412-1.588-6.689-4.108l-17.361-34.244c-1.873-3.695-0.396-8.208,3.298-10.081
		c3.693-1.873,8.208-0.396,10.081,3.298l10.671,21.049l10.236-20.192c0.172-0.48,0.396-0.947,0.668-1.391
		c1.364-2.221,3.784-3.575,6.391-3.575s5.059,1.354,6.423,3.575c0.229,0.372,0.423,0.76,0.583,1.158l10.354,20.425l10.671-21.049
		c1.874-3.694,6.386-5.171,10.081-3.298c3.694,1.873,5.171,6.386,3.298,10.081l-17.361,34.244
		C330.671,276.718,328.085,278.307,325.26,278.307z"/>
	<path style="fill:#5B5B75;" d="M414.656,278.307c-2.826,0-5.412-1.588-6.689-4.109l-10.639-20.985l-10.639,20.985
		c-1.278,2.52-3.864,4.108-6.689,4.108s-5.412-1.588-6.689-4.109l-17.36-34.244c-1.873-3.694-0.396-8.208,3.298-10.081
		c3.694-1.875,8.208-0.397,10.081,3.298L380,254.22l10.237-20.192c0.172-0.48,0.396-0.947,0.668-1.391
		c1.364-2.221,3.784-3.575,6.391-3.575s5.059,1.354,6.423,3.575c0.229,0.373,0.423,0.76,0.583,1.158l10.354,20.425l10.671-21.049
		c1.873-3.694,6.387-5.171,10.081-3.298s5.171,6.386,3.298,10.081l-17.361,34.244C420.068,276.718,417.482,278.307,414.656,278.307z
		"/>
</g>
<g>
</g>
<g>
</g>
<g>
</g>
<g>
</g>
<g>
</g>
<g>
</g>
<g>
</g>
<g>
</g>
<g>
</g>
<g>
</g>
<g>
</g>
<g>
</g>
<g>
</g>
<g>
</g>
<g>
</g>
</svg>
