<svg id="Capa_1" enable-background="new 0 0 512 512" height="512" viewBox="0 0 512 512" width="512" xmlns="http://www.w3.org/2000/svg"><g><path d="m263.492 65.507v-12.82c0-4.138-3.354-7.492-7.492-7.492s-7.492 3.354-7.492 7.492v12.82c0 4.138 3.354 7.492 7.492 7.492s7.492-3.354 7.492-7.492z"/><path d="m248.508 446.493v12.82c0 4.138 3.354 7.492 7.492 7.492s7.492-3.354 7.492-7.492v-12.82c0-4.138-3.354-7.492-7.492-7.492-4.138.001-7.492 3.354-7.492 7.492z"/><path d="m190.848 84.488c.851 0 1.716-.146 2.562-.454 3.888-1.416 5.893-5.714 4.478-9.603l-4.384-12.046c-1.415-3.888-5.717-5.892-9.602-4.477-3.888 1.415-5.893 5.714-4.478 9.603l4.384 12.046c1.107 3.043 3.979 4.931 7.04 4.931z"/><path d="m318.591 427.965c-3.888 1.415-5.893 5.714-4.478 9.603l4.384 12.046c1.108 3.042 3.98 4.931 7.041 4.931.851 0 1.716-.146 2.562-.453 3.888-1.416 5.893-5.714 4.478-9.603l-4.384-12.046c-1.417-3.889-5.718-5.891-9.603-4.478z"/><path d="m133.557 117.565c1.699 0 3.408-.575 4.812-1.753 3.17-2.659 3.583-7.385.923-10.555l-8.24-9.82c-2.659-3.169-7.385-3.581-10.554-.923-3.17 2.659-3.583 7.385-.923 10.555l8.24 9.82c1.481 1.766 3.604 2.676 5.742 2.676z"/><path d="m373.631 396.188c-3.17 2.659-3.583 7.385-.923 10.555l8.24 9.82c1.482 1.766 3.604 2.676 5.743 2.676 1.699 0 3.408-.575 4.812-1.753 3.17-2.659 3.583-7.385.923-10.555l-8.24-9.82c-2.66-3.17-7.386-3.583-10.555-.923z"/><path d="m94.774 154.266-11.102-6.41c-3.584-2.069-8.165-.842-10.234 2.742-2.069 3.583-.841 8.165 2.742 10.234l11.102 6.41c1.18.681 2.468 1.005 3.739 1.005 2.589 0 5.107-1.343 6.495-3.747 2.069-3.583.841-8.165-2.742-10.234z"/><path d="m435.82 351.169-11.102-6.41c-3.584-2.069-8.165-.842-10.234 2.742-2.069 3.583-.841 8.165 2.742 10.234l11.102 6.41c1.18.681 2.468 1.005 3.739 1.005 2.589 0 5.107-1.343 6.495-3.747 2.069-3.583.841-8.165-2.742-10.234z"/><path d="m57.077 213.318c-4.073-.721-7.96 2.003-8.679 6.076-.718 4.076 2.003 7.961 6.077 8.679l12.625 2.226c.44.078.877.115 1.31.115 3.567 0 6.728-2.558 7.369-6.191.719-4.076-2.003-7.961-6.077-8.679z"/><path d="m454.923 298.683c.44.078.877.115 1.31.115 3.567 0 6.728-2.558 7.369-6.191.718-4.076-2.003-7.961-6.077-8.679l-12.625-2.226c-4.073-.724-7.96 2.003-8.679 6.076-.718 4.075 2.003 7.961 6.077 8.679z"/><path d="m48.398 292.606c.641 3.635 3.802 6.191 7.369 6.191.432 0 .87-.037 1.31-.115l12.625-2.226c4.075-.718 6.796-4.603 6.077-8.679-.718-4.075-4.602-6.799-8.679-6.076l-12.625 2.226c-4.074.719-6.796 4.604-6.077 8.679z"/><path d="m463.602 219.394c-.718-4.075-4.603-6.797-8.679-6.076l-12.625 2.226c-4.075.718-6.796 4.603-6.077 8.679.641 3.635 3.802 6.191 7.369 6.191.432 0 .87-.037 1.31-.115l12.625-2.226c4.075-.718 6.796-4.603 6.077-8.679z"/><path d="m79.933 365.149c1.271 0 2.559-.324 3.739-1.005l11.102-6.41c3.583-2.069 4.811-6.651 2.742-10.234s-6.651-4.81-10.234-2.742l-11.102 6.41c-3.583 2.069-4.811 6.651-2.742 10.234 1.388 2.404 3.906 3.747 6.495 3.747z"/><path d="m428.328 147.856-11.102 6.41c-3.583 2.069-4.811 6.651-2.742 10.234 1.388 2.404 3.906 3.747 6.495 3.747 1.271 0 2.559-.324 3.739-1.005l11.102-6.41c3.583-2.069 4.811-6.651 2.742-10.234-2.069-3.584-6.651-4.81-10.234-2.742z"/><path d="m127.815 397.11-8.24 9.82c-2.66 3.169-2.247 7.896.923 10.555 1.404 1.178 3.112 1.753 4.812 1.753 2.138 0 4.261-.91 5.743-2.676l8.24-9.82c2.66-3.169 2.247-7.896-.923-10.555-3.171-2.662-7.896-2.247-10.555.923z"/><path d="m378.443 117.565c2.138 0 4.261-.91 5.743-2.676l8.24-9.82c2.66-3.169 2.247-7.896-.923-10.555-3.17-2.661-7.895-2.246-10.554.923l-8.24 9.82c-2.66 3.169-2.247 7.896.923 10.555 1.403 1.178 3.111 1.753 4.811 1.753z"/><path d="m183.807 432.443-4.384 12.046c-1.415 3.888.59 8.187 4.478 9.603.846.307 1.711.453 2.562.453 3.06 0 5.933-1.89 7.041-4.931l4.384-12.046c1.415-3.888-.59-8.187-4.478-9.603-3.888-1.413-8.188.59-9.603 4.478z"/><path d="m321.152 84.488c3.06 0 5.933-1.89 7.041-4.931l4.384-12.046c1.415-3.888-.59-8.187-4.478-9.603-3.888-1.414-8.187.59-9.602 4.477l-4.384 12.046c-1.415 3.888.59 8.187 4.478 9.603.845.308 1.711.454 2.561.454z"/><path d="m501.659 221.37c-3.226-6.868-6.274-13.355-7.712-19.681-1.519-6.682-1.604-14.058-1.694-21.868-.136-11.79-.277-23.98-5.557-34.924-5.379-11.151-14.911-18.897-24.129-26.388-5.978-4.859-11.625-9.448-15.781-14.653-4.196-5.254-7.441-11.812-10.877-18.755-5.251-10.611-10.681-21.585-20.286-29.254-9.557-7.632-21.439-10.494-32.929-13.263-7.557-1.82-14.695-3.54-20.799-6.485-5.923-2.857-11.608-7.305-17.628-12.014-9.395-7.35-19.11-14.95-31.299-17.722-11.702-2.658-23.538-.099-34.985 2.376-7.717 1.67-15.006 3.246-21.984 3.246s-14.266-1.576-21.984-3.246c-11.447-2.475-23.284-5.036-34.985-2.376-12.189 2.771-21.904 10.371-31.299 17.722-6.019 4.709-11.704 9.157-17.628 12.014-6.105 2.945-13.243 4.665-20.8 6.485-11.49 2.768-23.371 5.63-32.929 13.262-9.605 7.67-15.035 18.643-20.286 29.254-3.436 6.943-6.681 13.501-10.877 18.756-4.156 5.204-9.802 9.793-15.78 14.651-9.218 7.492-18.75 15.239-24.129 26.389-5.28 10.944-5.421 23.136-5.557 34.925-.09 7.81-.175 15.186-1.694 21.868-1.438 6.326-4.486 12.813-7.712 19.681-5.082 10.822-10.339 22.011-10.339 34.63s5.257 23.809 10.341 34.63c3.226 6.868 6.274 13.355 7.712 19.681 1.519 6.681 1.604 14.058 1.694 21.867.136 11.789.277 23.98 5.557 34.924 5.379 11.15 14.911 18.896 24.129 26.388 5.978 4.859 11.625 9.448 15.777 14.647.183.23.365.462.545.697 2.523 3.281 7.226 3.894 10.505 1.372 3.28-2.523 3.894-7.226 1.372-10.506-.233-.302-.468-.603-.71-.906-5.162-6.465-11.709-11.786-18.04-16.93-8.309-6.752-16.156-13.13-20.084-21.271-3.831-7.94-3.946-17.969-4.069-28.588-.095-8.249-.194-16.779-2.066-25.014-1.798-7.908-5.338-15.444-8.762-22.732-4.587-9.763-8.919-18.984-8.919-28.259s4.332-18.496 8.919-28.259c3.424-7.288 6.964-14.823 8.762-22.732 1.872-8.235 1.971-16.766 2.066-25.014.123-10.618.239-20.647 4.07-28.589 3.927-8.141 11.776-14.518 20.084-21.271 6.33-5.145 12.876-10.464 18.039-16.93 5.201-6.513 8.961-14.111 12.597-21.46 4.733-9.565 9.204-18.599 16.206-24.19 6.955-5.553 16.734-7.909 27.088-10.404 7.991-1.925 16.254-3.916 23.801-7.557 7.375-3.558 13.971-8.718 20.35-13.708 8.469-6.625 16.469-12.883 25.388-14.911 8.459-1.924 18.192.182 28.495 2.41 8.147 1.763 16.572 3.585 25.151 3.585s17.004-1.822 25.151-3.585c10.303-2.228 20.035-4.333 28.495-2.41 8.919 2.028 16.919 8.286 25.389 14.912 6.379 4.99 12.975 10.15 20.35 13.708 7.547 3.642 15.81 5.633 23.8 7.557 10.354 2.494 20.134 4.85 27.089 10.404 7.003 5.593 11.473 14.626 16.206 24.191 3.636 7.347 7.396 14.945 12.597 21.459 5.162 6.466 11.709 11.786 18.04 16.932 8.308 6.752 16.156 13.13 20.083 21.271 3.831 7.94 3.946 17.969 4.069 28.587.095 8.25.194 16.78 2.066 25.015 1.798 7.908 5.338 15.444 8.762 22.732 4.587 9.763 8.919 18.984 8.919 28.259 0 9.274-4.332 18.495-8.919 28.259-3.424 7.287-6.964 14.824-8.762 22.732-1.872 8.235-1.97 16.765-2.066 25.014-.123 10.618-.239 20.647-4.07 28.589-3.927 8.139-11.775 14.517-20.083 21.27-6.331 5.146-12.877 10.466-18.04 16.931-5.201 6.513-8.961 14.112-12.597 21.459-4.733 9.565-9.204 18.599-16.206 24.191-6.956 5.553-16.736 7.909-27.09 10.404-7.99 1.925-16.252 3.915-23.799 7.556-7.375 3.558-13.97 8.718-20.348 13.708-8.47 6.626-16.469 12.885-25.39 14.912-8.461 1.923-18.193-.182-28.496-2.41-8.147-1.762-16.572-3.584-25.151-3.584s-17.004 1.822-25.151 3.584c-10.303 2.229-20.033 4.334-28.496 2.41-8.92-2.027-16.92-8.286-25.389-14.912-6.378-4.99-12.974-10.15-20.348-13.708-7.548-3.641-15.811-5.632-23.801-7.557-10.353-2.494-20.133-4.85-27.087-10.403-3.687-2.944-7.016-7.127-10.477-13.164-2.058-3.589-6.636-4.83-10.225-2.773-3.59 2.058-4.832 6.636-2.773 10.226 4.429 7.725 8.917 13.261 14.125 17.42 9.557 7.63 21.438 10.492 32.928 13.261 7.557 1.82 14.695 3.54 20.8 6.485 5.922 2.857 11.607 7.305 17.626 12.014 9.395 7.35 19.111 14.951 31.301 17.722 11.702 2.66 23.539.1 34.985-2.376 7.717-1.669 15.006-3.246 21.983-3.246s14.267 1.576 21.983 3.246c8.005 1.731 16.199 3.504 24.406 3.504 3.528 0 7.061-.328 10.579-1.128 12.19-2.77 21.906-10.371 31.301-17.722 6.019-4.709 11.704-9.157 17.626-12.014 6.104-2.944 13.241-4.664 20.797-6.484 11.491-2.767 23.373-5.63 32.931-13.263 9.605-7.669 15.035-18.642 20.286-29.254 3.436-6.943 6.681-13.501 10.876-18.755 4.156-5.205 9.803-9.794 15.781-14.653 9.218-7.491 18.749-15.237 24.128-26.387 5.28-10.944 5.421-23.136 5.557-34.925.09-7.81.175-15.186 1.694-21.867 1.438-6.326 4.486-12.813 7.712-19.681 5.088-10.825 10.345-22.015 10.345-34.633 0-12.619-5.257-23.808-10.341-34.63z"/><path d="m256 424.781c93.066 0 168.781-75.714 168.781-168.781 0-15.225-2.029-30.32-6.029-44.865-1.097-3.99-5.221-6.331-9.211-5.236-3.989 1.097-6.334 5.221-5.236 9.211 3.645 13.25 5.493 27.007 5.493 40.89 0 84.804-68.993 153.797-153.797 153.797s-153.798-68.993-153.798-153.797 68.993-153.797 153.797-153.797c57.182 0 109.318 31.433 136.064 82.033 1.933 3.658 6.466 5.056 10.125 3.123 3.658-1.933 5.056-6.467 3.122-10.125-29.348-55.522-86.56-90.015-149.311-90.015-93.066 0-168.781 75.714-168.781 168.781s75.715 168.781 168.781 168.781z"/><path d="m305.785 148.768c-11.005-9.651-27.81-8.548-37.46 2.454l-23.783 27.118-1.815-1.863c-10.218-10.483-27.058-10.696-37.537-.482-10.482 10.216-10.698 27.056-.482 37.538l21.853 22.423c4.967 5.095 11.895 8.016 19.008 8.016.225 0 .452-.004.698-.01 7.376-.193 14.396-3.485 19.26-9.032l42.712-48.701c9.651-11.005 8.55-27.81-2.454-37.461zm-8.811 27.581-42.712 48.701c-2.118 2.415-5.176 3.849-8.367 3.933l-.326.005c-3.098 0-6.116-1.273-8.279-3.491l-21.852-22.422c-4.45-4.566-4.355-11.901.21-16.35 2.244-2.188 5.156-3.277 8.067-3.277 3.01 0 6.019 1.166 8.282 3.486l7.47 7.664c1.458 1.496 3.464 2.326 5.562 2.26 2.088-.055 4.058-.978 5.435-2.549l29.125-33.208c4.203-4.794 11.523-5.271 16.315-1.069 4.794 4.204 5.274 11.523 1.07 16.317z"/><path d="m237.523 264.88c-1.379-3.355-4.612-5.52-8.238-5.52-.003 0-.006 0-.009 0-3.629.004-6.863 2.177-8.236 5.537-.023.057-.045.112-.067.17l-23.462 61.602c-1.473 3.866.468 8.194 4.335 9.667 3.868 1.474 8.195-.467 9.668-4.335l4.005-10.517h27.354l3.961 10.496c1.133 3 3.983 4.848 7.011 4.848.879 0 1.773-.156 2.644-.485 3.871-1.46 5.825-5.783 4.364-9.654l-23.249-61.605c-.026-.068-.053-.136-.081-.204zm-16.298 41.62 8.033-21.092 7.96 21.092z"/><path d="m278.522 266.852v62.483c0 4.138 3.354 7.492 7.492 7.492s7.492-3.354 7.492-7.492v-62.483c0-4.138-3.354-7.492-7.492-7.492s-7.492 3.354-7.492 7.492z"/><path d="m312.532 329.179c.008 2.036.823 3.984 2.268 5.419 1.438 1.427 3.382 2.228 5.407 2.228h.029c.532-.002 13.075-.05 18.086-.138 18.606-.325 32.111-16.556 32.111-38.595 0-23.168-13.165-38.733-32.759-38.733h-17.593c-2.038 0-3.992.81-5.432 2.253-1.44 1.442-2.247 3.398-2.243 5.435 0 .001.045 23.893.045 30.976 0 8.636.081 31.155.081 31.155zm25.142-54.47c12.836 0 17.409 12.079 17.409 23.384 0 15.854-8.553 23.1-17.029 23.248-2.341.041-6.488.074-10.198.097-.023-7.34-.055-18.054-.055-23.413 0-4.48-.018-15.678-.031-23.315h9.904z"/><path d="m149.751 259.36c-.74 0-1.474.113-2.184.325-2.219.666-3.958 2.285-4.796 4.418-.343.874-.512 1.81-.512 2.749v62.483c0 4.138 3.354 7.492 7.492 7.492s7.492-3.354 7.492-7.492v-19.689c3.583-.019 7.608-.036 9.906-.036 14.044 0 25.469-11.271 25.469-25.125s-11.425-25.125-25.469-25.125zm27.884 25.124c0 5.497-4.802 10.141-10.486 10.141-2.282 0-6.258.018-9.827.036-.019-3.687-.036-7.834-.036-10.177 0-1.984-.011-6.282-.021-10.141h9.884c5.684 0 10.486 4.645 10.486 10.141z"/></g></svg>