<?xml version="1.0" encoding="iso-8859-1"?>
<!-- Generator: Adobe Illustrator 19.0.0, SVG Export Plug-In . SVG Version: 6.00 Build 0)  -->
<svg version="1.1" id="Capa_1" xmlns="http://www.w3.org/2000/svg" xmlns:xlink="http://www.w3.org/1999/xlink" x="0px" y="0px"
	 viewBox="0 0 480 480" style="enable-background:new 0 0 480 480;" xml:space="preserve">
<path style="fill:#4E901E;" d="M432,80c0-17.673-14.327-32-32-32H80c-17.673,0-32,14.327-32,32v320c0,17.673,14.327,32,32,32h320
	c17.673,0,32-14.327,32-32V80z M384,384H96V96h288V384z"/>
<path style="fill:#5EAC24;" d="M96,384h288V96H96V384z M160,144c8.837,0,16,7.163,16,16s-7.163,16-16,16s-16-7.163-16-16
	S151.163,144,160,144z"/>
<circle style="fill:#4E901E;" cx="160" cy="160" r="16"/>
<g>
	<path style="fill:#231F20;" d="M184,328h16v32h-16V328z"/>
	<path style="fill:#231F20;" d="M216,328h16v32h-16V328z"/>
	<path style="fill:#231F20;" d="M248,328h16v32h-16V328z"/>
	<path style="fill:#231F20;" d="M280,328h16v32h-16V328z"/>
	<path style="fill:#231F20;" d="M312,328h16v32h-16V328z"/>
	<path style="fill:#231F20;" d="M152,328h16v32h-16V328z"/>
	<path style="fill:#231F20;" d="M480,128v-16h-40V80c-0.026-22.08-17.92-39.974-40-40h-32V0h-16v40h-32V0h-16v40h-32V0h-16v40h-32V0
		h-16v40h-32V0h-16v40h-32V0h-16v40H80c-22.08,0.026-39.974,17.92-40,40v32H0v16h40v32H0v16h40v32H0v16h40v32H0v16h40v32H0v16h40v32
		H0v16h40v32c0.026,22.08,17.92,39.974,40,40h32v40h16v-40h32v40h16v-40h32v40h16v-40h32v40h16v-40h32v40h16v-40h32v40h16v-40h32
		c22.08-0.026,39.974-17.92,40-40v-32h40v-16h-40v-32h40v-16h-40v-32h40v-16h-40v-32h40v-16h-40v-32h40v-16h-40v-32H480z M424,400
		c0,13.255-10.745,24-24,24H80c-13.255,0-24-10.745-24-24V80c0-13.255,10.745-24,24-24h320c13.255,0,24,10.745,24,24V400z"/>
	<path style="fill:#231F20;" d="M88,392h304V88H88V392z M104,104h272v272H104V104z"/>
	<path style="fill:#231F20;" d="M184,160c0-13.255-10.745-24-24-24s-24,10.745-24,24s10.745,24,24,24S184,173.255,184,160z M152,160
		c0-4.418,3.582-8,8-8s8,3.582,8,8s-3.582,8-8,8S152,164.418,152,160z"/>
	<path style="fill:#231F20;" d="M160,200h176v16H160V200z"/>
	<path style="fill:#231F20;" d="M160,232h144v16H160V232z"/>
	<path style="fill:#231F20;" d="M160,264h64v16h-64V264z"/>
	<path style="fill:#231F20;" d="M240,264h16v16h-16V264z"/>
	<path style="fill:#231F20;" d="M320,232h16v16h-16V232z"/>
</g>
<g>
</g>
<g>
</g>
<g>
</g>
<g>
</g>
<g>
</g>
<g>
</g>
<g>
</g>
<g>
</g>
<g>
</g>
<g>
</g>
<g>
</g>
<g>
</g>
<g>
</g>
<g>
</g>
<g>
</g>
</svg>
