<?xml version="1.0" encoding="iso-8859-1"?>
<!-- Generator: Adobe Illustrator 19.0.0, SVG Export Plug-In . SVG Version: 6.00 Build 0)  -->
<svg version="1.1" id="Capa_1" xmlns="http://www.w3.org/2000/svg" xmlns:xlink="http://www.w3.org/1999/xlink" x="0px" y="0px"
	 viewBox="0 0 512 512" style="enable-background:new 0 0 512 512;" xml:space="preserve">
<path style="fill:#32BF84;" d="M512,256c0,105.159-63.404,195.511-154.081,234.903C326.687,504.477,292.227,512,256,512
	s-70.698-7.523-101.93-21.096C63.404,451.511,0,361.159,0,256C0,114.615,114.615,0,256,0S512,114.615,512,256z"/>
<path style="fill:#FFE461;" d="M388.963,264.14h-31.044v226.764C326.687,504.477,292.227,512,256,512s-70.698-7.523-101.93-21.096
	V264.14h-31.044c-20.637,0-32.862-23.092-21.264-40.155L234.726,28.306c10.209-15.015,32.34-15.015,42.538,0l132.974,195.678
	C421.836,241.048,409.61,264.14,388.963,264.14z"/>
<g>
</g>
<g>
</g>
<g>
</g>
<g>
</g>
<g>
</g>
<g>
</g>
<g>
</g>
<g>
</g>
<g>
</g>
<g>
</g>
<g>
</g>
<g>
</g>
<g>
</g>
<g>
</g>
<g>
</g>
</svg>
